<svg xmlns="http://www.w3.org/2000/svg" viewBox="0 0 563.78 725"><defs><style>.cls-1{fill:#000;}</style></defs><g id="Capa_2" data-name="Capa 2"><g id="Capa_1-2" data-name="Capa 1"><path class="cls-1" d="M0,0H563.78V493.88c0,50.88-32.11,87.9-83.1,92.86-26.92,2.63-54.21,1.51-81.34,2.07-22.7.48-45.47.08-68.1,1.68-18.62,1.31-35.41,8.5-48.39,23.08-17.16-18.31-39.15-24.2-62.73-24.59-33.65-.57-67.33-.18-101,.07-24.69.18-49.17-1.29-71.49-13C16.88,560,0,534.69,0,499.27Q0,255.15,0,11ZM524.58,39H39.3c-.15,3-.37,5.29-.37,7.62q0,226,0,452c0,21.29,10.33,36.57,29.82,43.71a124.16,124.16,0,0,0,38.77,7.18c36,.94,72.05.41,108.08.29A157,157,0,0,1,276.71,562a17.51,17.51,0,0,0,12.13-.07c18.79-7.74,38.17-12.07,58.47-12.1,35.15,0,70.3.1,105.44-.1a171.17,171.17,0,0,0,24.67-1.85c31.31-4.73,47.16-23.38,47.16-54.92V39Z"/><path class="cls-1" d="M70.06,700.49v-39H79.7q69.11,0,138.22,0c20,0,39.11,4.27,57.69,11.68a20.29,20.29,0,0,0,13.83.14c18.85-7.62,38.23-11.84,58.55-11.82q67.35,0,134.69,0H493v39h-9.67c-45.79,0-91.57-.32-137.35.13-23.59.23-45.6,5.9-63.11,24.38-20.7-21.4-47.3-24.81-75.31-24.6-42.53.32-85.07.09-127.6.09Z"/><path class="cls-1" d="M494.19,362.9c-9.81-7.33-18.86-13.73-27.39-20.76-1.75-1.44-2.14-5.22-2.18-7.93-.22-13.28-.1-26.56-.1-41.23-7.06,0-13.73.28-20.35-.16-2.09-.13-5.56-1.88-5.84-3.37-4.78-25.59-14.88-48.88-30.72-70.82l17.93-15.31-32-31.85-14.78,18.08a177.33,177.33,0,0,0-75.32-31.69v-25H260.76V157.7c-27.07,5-51.82,14.52-75.21,31.82L170,169.84l-31.38,32.9,17.92,15.57c-16.1,22.78-26.8,46.75-31,74.17H99.46c0,9.82.46,18.86-.22,27.81a16.59,16.59,0,0,1-4.85,10.14C87,337.16,78.86,343.09,70,350.18V263.13H99.43c5.56-12.76,10.86-24.5,15.64-36.44.69-1.71-.49-5.05-1.93-6.58-5.85-6.23-12.13-12-17.57-17.34l74.88-74.88c4.53,4.9,10.33,10.71,15.58,17,3.54,4.24,6.61,4,11.26,1.71a173.43,173.43,0,0,1,25.24-10.46c6-1.87,7.72-4.89,7.36-10.78-.47-7.55-.11-15.15-.11-23.22H334.21c0,7.92.47,15.76-.15,23.51-.5,6.29,2.17,8.66,7.72,10.59,10.51,3.66,20.71,8.23,32.56,13l19.17-21.34,75.35,75.4c-5,4.68-11.43,10.29-17.24,16.51-1.7,1.82-2.89,5.87-2.06,8,4.43,11.48,9.56,22.69,14.77,34.72h29.86Z"/><path class="cls-1" d="M76.7,436.77c0-16.18-.25-30.35.21-44.5a13,13,0,0,1,4.45-8.63c23.89-19.27,47.55-38.89,72.23-57.1,33.08-24.41,69.59-35.58,109.61-19.3,13.31,5.42,25.74,14.39,36.68,23.9,11.73,10.19,22.61,17,39.33,14.46,20.57-3.09,38.43,5.82,55,17.72,4.63,3.32,11.29,5.9,16.82,5.57,28.69-1.73,51.26,11.07,72.16,28.45a7.8,7.8,0,0,1,2.64,5.12c.21,14.65.12,29.3.12,46-12.25-9.23-23.16-17.05-33.62-25.44-12.68-10.17-26.48-16.21-43.14-14.84-14.89,1.23-27.72-4.1-39.15-13.41-9.52-7.75-20.13-12.16-32.74-10-24.36,4.23-43.6-5.37-60.54-22-30.62-30-66.19-31.62-100.1-4.79q-46.17,36.54-92.31,73.14C82.37,432.73,80.25,434.17,76.7,436.77Z"/></g></g></svg>